<?xml version="1.0" encoding="UTF-8" standalone="no"?>
<!-- Generator: Adobe Illustrator 19.0.0, SVG Export Plug-In . SVG Version: 6.00 Build 0)  -->

<svg
   xmlns:dc="http://purl.org/dc/elements/1.1/"
   xmlns:cc="http://creativecommons.org/ns#"
   xmlns:rdf="http://www.w3.org/1999/02/22-rdf-syntax-ns#"
   xmlns:svg="http://www.w3.org/2000/svg"
   xmlns="http://www.w3.org/2000/svg"
   xmlns:sodipodi="http://sodipodi.sourceforge.net/DTD/sodipodi-0.dtd"
   xmlns:inkscape="http://www.inkscape.org/namespaces/inkscape"
   version="1.1"
   id="Capa_1"
   x="0px"
   y="0px"
   viewBox="0 0 384 384"
   style="enable-background:new 0 0 384 384;"
   xml:space="preserve"
   sodipodi:docname="adjust.svg"
   inkscape:version="0.92.3 (2405546, 2018-03-11)"><metadata
   id="metadata55"><rdf:RDF><cc:Work
       rdf:about=""><dc:format>image/svg+xml</dc:format><dc:type
         rdf:resource="http://purl.org/dc/dcmitype/StillImage" /></cc:Work></rdf:RDF></metadata><defs
   id="defs53" /><sodipodi:namedview
   pagecolor="#ffffff"
   bordercolor="#666666"
   borderopacity="1"
   objecttolerance="10"
   gridtolerance="10"
   guidetolerance="10"
   inkscape:pageopacity="0"
   inkscape:pageshadow="2"
   inkscape:window-width="1366"
   inkscape:window-height="743"
   id="namedview51"
   showgrid="false"
   inkscape:zoom="1.2291667"
   inkscape:cx="256.41561"
   inkscape:cy="167.10441"
   inkscape:window-x="1366"
   inkscape:window-y="0"
   inkscape:window-maximized="1"
   inkscape:current-layer="Capa_1" />
<g
   id="g18"
   transform="rotate(89.75619,191.59149,192.40678)">
	<g
   id="g16">
		<g
   id="g14">
			<polygon
   points="0,213.333 85.333,213.333 85.333,256 128,256 128,128 85.333,128 85.333,170.667 0,170.667 "
   id="polygon2" />
			<rect
   x="0"
   y="298.66699"
   width="128"
   height="42.667"
   id="rect4" />
			<rect
   x="0"
   y="42.667"
   width="213.33299"
   height="42.667"
   id="rect6" />
			<rect
   x="170.66701"
   y="170.66701"
   width="213.33299"
   height="42.667"
   id="rect8" />
			<polygon
   points="256,0 256,128 298.667,128 298.667,85.333 384,85.333 384,42.667 298.667,42.667 298.667,0 "
   id="polygon10" />
			<polygon
   points="170.667,384 213.333,384 213.333,341.333 384,341.333 384,298.667 213.333,298.667 213.333,256 170.667,256 "
   id="polygon12"
   style="paint-order:stroke fill markers" />
		<polygon
   style="paint-order:stroke fill markers"
   id="polygon1144"
   points="170.667,384 213.333,384 213.333,341.333 384,341.333 384,298.667 213.333,298.667 213.333,256 170.667,256 " /></g>
	</g>
</g>
<g
   id="g20">
</g>
<g
   id="g22">
</g>
<g
   id="g24">
</g>
<g
   id="g26">
</g>
<g
   id="g28">
</g>
<g
   id="g30">
</g>
<g
   id="g32">
</g>
<g
   id="g34">
</g>
<g
   id="g36">
</g>
<g
   id="g38">
</g>
<g
   id="g40">
</g>
<g
   id="g42">
</g>
<g
   id="g44">
</g>
<g
   id="g46">
</g>
<g
   id="g48">
</g>
</svg>