<?xml version="1.0" encoding="UTF-8" standalone="no"?>
<!-- Generator: Adobe Illustrator 19.0.0, SVG Export Plug-In . SVG Version: 6.00 Build 0)  -->

<svg
   xmlns:dc="http://purl.org/dc/elements/1.1/"
   xmlns:cc="http://creativecommons.org/ns#"
   xmlns:rdf="http://www.w3.org/1999/02/22-rdf-syntax-ns#"
   xmlns:svg="http://www.w3.org/2000/svg"
   xmlns="http://www.w3.org/2000/svg"
   xmlns:sodipodi="http://sodipodi.sourceforge.net/DTD/sodipodi-0.dtd"
   xmlns:inkscape="http://www.inkscape.org/namespaces/inkscape"
   version="1.1"
   id="Capa_1"
   x="0px"
   y="0px"
   viewBox="0 0 448 448"
   style="enable-background:new 0 0 448 448;"
   xml:space="preserve"
   sodipodi:docname="bars.svg"
   inkscape:version="0.92.3 (2405546, 2018-03-11)"><metadata
   id="metadata55"><rdf:RDF><cc:Work
       rdf:about=""><dc:format>image/svg+xml</dc:format><dc:type
         rdf:resource="http://purl.org/dc/dcmitype/StillImage" /><dc:title></dc:title></cc:Work></rdf:RDF></metadata><defs
   id="defs53" /><sodipodi:namedview
   pagecolor="#ffffff"
   bordercolor="#666666"
   borderopacity="1"
   objecttolerance="10"
   gridtolerance="10"
   guidetolerance="10"
   inkscape:pageopacity="0"
   inkscape:pageshadow="2"
   inkscape:window-width="1366"
   inkscape:window-height="703"
   id="namedview51"
   showgrid="false"
   inkscape:zoom="0.52678571"
   inkscape:cx="129.91852"
   inkscape:cy="354.60072"
   inkscape:window-x="0"
   inkscape:window-y="0"
   inkscape:window-maximized="1"
   inkscape:current-layer="Capa_1" />


<g
   id="g18"
   transform="rotate(-89.312253,249,198.698)">
	<g
   id="g16">
		<path
   d="M 222.82658,272.09799 16,272 c -8.843999,-0.004 -16,7.164 -16,16 0,8.836 7.156,16 16,16 l 208,0 c 11.88729,-0.10583 16.60512,-9.49088 16.53521,-16.19209 -0.068,-6.51584 -5.06488,-15.51625 -17.70863,-15.70992 z"
   id="path14"
   inkscape:connector-curvature="0"
   sodipodi:nodetypes="cssscsc" />
	</g>
</g>
<g
   id="g20"
   transform="rotate(-89.312253,224,224)">
</g>
<g
   id="g22"
   transform="rotate(-89.312253,224,224)">
</g>
<g
   id="g24"
   transform="rotate(-89.312253,224,224)">
</g>
<g
   id="g26"
   transform="rotate(-89.312253,224,224)">
</g>
<g
   id="g28"
   transform="rotate(-89.312253,224,224)">
</g>
<g
   id="g30"
   transform="rotate(-89.312253,224,224)">
</g>
<g
   id="g32"
   transform="rotate(-89.312253,224,224)">
</g>
<g
   id="g34"
   transform="rotate(-89.312253,224,224)">
</g>
<g
   id="g36"
   transform="rotate(-89.312253,224,224)">
</g>
<g
   id="g38"
   transform="rotate(-89.312253,224,224)">
</g>
<g
   id="g40"
   transform="rotate(-89.312253,224,224)">
</g>
<g
   id="g42"
   transform="rotate(-89.312253,224,224)">
</g>
<g
   id="g44"
   transform="rotate(-89.312253,224,224)">
</g>
<g
   id="g46"
   transform="rotate(-89.312253,224,224)">
</g>
<g
   id="g48"
   transform="rotate(-89.312253,224,224)">
</g>
<path
   d="m 94.060616,305.39439 -2.58055,132.36651 c -0.11016,5.66006 6.97143,10.2949 15.806794,10.36278 8.83537,0.0679 16.08475,-4.45685 16.1909,-10.11694 l 2.49666,-133.11824 c 0.0369,-7.60858 -9.29088,-10.70005 -15.99245,-10.70679 -6.51619,-0.007 -15.575934,3.12227 -15.921354,11.21268 z"
   id="path14-3"
   inkscape:connector-curvature="0"
   sodipodi:nodetypes="cssscsc"
   style="stroke-width:0.80002356" /><path
   d="m 204.80073,76.92441 -2.58056,343.00262 c -0.11015,14.66694 6.97143,26.67726 15.8068,26.85316 8.83536,0.17591 16.08474,-11.54909 16.1909,-26.21612 l 2.49665,-344.950583 c 0.0369,-19.716192 -9.29088,-27.727151 -15.99245,-27.744616 -6.51618,-0.01692 -15.57592,8.090785 -15.92134,29.055539 z"
   id="path14-6"
   inkscape:connector-curvature="0"
   sodipodi:nodetypes="cssscsc"
   style="stroke-width:1.28784144" /></svg>