<?xml version="1.0" encoding="UTF-8" standalone="no"?>
<svg
   xmlns:dc="http://purl.org/dc/elements/1.1/"
   xmlns:cc="http://creativecommons.org/ns#"
   xmlns:rdf="http://www.w3.org/1999/02/22-rdf-syntax-ns#"
   xmlns:svg="http://www.w3.org/2000/svg"
   xmlns="http://www.w3.org/2000/svg"
   xmlns:sodipodi="http://sodipodi.sourceforge.net/DTD/sodipodi-0.dtd"
   xmlns:inkscape="http://www.inkscape.org/namespaces/inkscape"
   height="573pt"
   viewBox="-18 -49 573.33331 573"
   width="573pt"
   version="1.1"
   id="svg4"
   sodipodi:docname="folder.svg"
   inkscape:version="0.92.3 (2405546, 2018-03-11)">
  <metadata
     id="metadata10">
    <rdf:RDF>
      <cc:Work
         rdf:about="">
        <dc:format>image/svg+xml</dc:format>
        <dc:type
           rdf:resource="http://purl.org/dc/dcmitype/StillImage" />
      </cc:Work>
    </rdf:RDF>
  </metadata>
  <defs
     id="defs8" />
  <sodipodi:namedview
     pagecolor="#ffffff"
     bordercolor="#666666"
     borderopacity="1"
     objecttolerance="10"
     gridtolerance="10"
     guidetolerance="10"
     inkscape:pageopacity="0"
     inkscape:pageshadow="2"
     inkscape:window-width="1366"
     inkscape:window-height="743"
     id="namedview6"
     showgrid="false"
     inkscape:zoom="0.43685131"
     inkscape:cx="434.36442"
     inkscape:cy="564.84302"
     inkscape:window-x="1366"
     inkscape:window-y="0"
     inkscape:window-maximized="1"
     inkscape:current-layer="svg4" />
  <path
     d="M 475,101.58594 H 292.125 c -14,0.004 -26.83203,-7.808596 -33.25,-20.250002 l -25.75,-49.625 C 222.40234,10.972656 200.96875,-2.007812 177.625,-1.917969 H 62.5 C 27.988281,-1.902344 0.015625,26.070312 0,60.582031 V 410.08594 c 0.015625,34.51172 27.988281,62.48437 62.5,62.5 H 475 c 34.51172,-0.0156 62.48437,-27.98828 62.5,-62.5 v -246 c -0.0156,-34.51172 -27.98828,-62.49219 -62.5,-62.5 z M 62.5,23.210938 h 115.125 c 14,-0.01172 26.83203,7.808593 33.25,20.25 l 25.75,49.621093 c 1.59766,2.996094 3.39453,5.875 5.375,8.628909 H 25 V 60.832031 C 25.0039,40.105469 41.773438,23.285156 62.5,23.210938 Z m 450,386.996092 c -0.0586,20.6875 -16.81641,37.44141 -37.5,37.5 H 62.5 c -20.683594,-0.0586 -37.441406,-16.8125 -37.5,-37.5 V 101.71094 h 217 c 5.4318,11.00181 26.89414,22.97693 41.5,24.375 2.90234,0.39453 5.82031,0.60547 8.75,0.625 H 475 c 20.68359,0.0586 37.44141,16.8125 37.5,37.5 z"
     id="path2"
     inkscape:connector-curvature="0"
     sodipodi:nodetypes="cccccccccccccccccccccccccccccccc" />
</svg>
