<?xml version="1.0" encoding="iso-8859-1"?>
<!-- Generator: Adobe Illustrator 19.0.0, SVG Export Plug-In . SVG Version: 6.00 Build 0)  -->
<svg version="1.1" id="Layer_1" xmlns="http://www.w3.org/2000/svg" xmlns:xlink="http://www.w3.org/1999/xlink" x="0px" y="0px"
	 viewBox="0 0 512.003 512.003" style="enable-background:new 0 0 512.003 512.003;" xml:space="preserve">
<g>
	<g>
		<path d="M471.492,16.683c-0.196-1.12-0.468-2.24-0.865-3.346c-3.754-10.464-15.277-15.901-25.741-12.15L196.403,90.323
			c-0.134,0.048-0.258,0.111-0.389,0.162c-0.39,0.15-0.776,0.309-1.155,0.482c-0.254,0.115-0.502,0.236-0.749,0.361
			c-0.322,0.164-0.64,0.334-0.951,0.515c-0.286,0.165-0.568,0.335-0.843,0.513c-0.254,0.164-0.501,0.331-0.746,0.506
			c-0.303,0.215-0.601,0.436-0.891,0.666c-0.207,0.165-0.408,0.335-0.609,0.507c-0.294,0.254-0.582,0.513-0.86,0.782
			c-0.188,0.182-0.37,0.37-0.55,0.56c-0.259,0.272-0.514,0.547-0.757,0.832c-0.188,0.22-0.368,0.447-0.546,0.674
			c-0.209,0.268-0.415,0.538-0.611,0.816c-0.191,0.27-0.37,0.547-0.547,0.827c-0.16,0.252-0.317,0.505-0.464,0.765
			c-0.182,0.318-0.352,0.641-0.515,0.97c-0.121,0.242-0.24,0.484-0.352,0.731c-0.156,0.345-0.299,0.696-0.436,1.051
			c-0.098,0.254-0.193,0.509-0.28,0.768c-0.117,0.344-0.221,0.69-0.319,1.041c-0.083,0.297-0.161,0.594-0.229,0.895
			c-0.072,0.313-0.135,0.629-0.193,0.947c-0.066,0.361-0.119,0.723-0.166,1.088c-0.034,0.268-0.063,0.538-0.085,0.81
			c-0.035,0.42-0.055,0.841-0.064,1.265c-0.003,0.14-0.021,0.274-0.021,0.413v234.913c-14.721-10.035-32.491-15.913-51.612-15.913
			c-50.655,0-91.865,41.211-91.865,91.866s41.21,91.866,91.865,91.866c50.655,0,91.866-41.211,91.866-91.866V123.431l208.826-74.91
			v209.09c-14.721-10.035-32.491-15.913-51.612-15.913c-50.655,0-91.865,41.211-91.865,91.866c0,50.655,41.21,91.866,91.865,91.866
			s91.866-41.211,91.866-91.866V22.697C472.407,20.602,472.086,18.583,471.492,16.683z M131.461,471.747
			c-28.459,0-51.61-23.153-51.61-51.612c0-28.459,23.152-51.612,51.61-51.612s51.612,23.153,51.612,51.612
			C183.072,448.594,159.919,471.747,131.461,471.747z M380.541,385.176c-28.459,0-51.61-23.153-51.61-51.612
			c0-28.459,23.152-51.612,51.61-51.612c28.459,0,51.612,23.153,51.612,51.612C432.152,362.022,408.999,385.176,380.541,385.176z"/>
	</g>
</g>
<g>
</g>
<g>
</g>
<g>
</g>
<g>
</g>
<g>
</g>
<g>
</g>
<g>
</g>
<g>
</g>
<g>
</g>
<g>
</g>
<g>
</g>
<g>
</g>
<g>
</g>
<g>
</g>
<g>
</g>
</svg>
