<?xml version="1.0" encoding="UTF-8" standalone="no"?>
<svg
   xmlns:dc="http://purl.org/dc/elements/1.1/"
   xmlns:cc="http://creativecommons.org/ns#"
   xmlns:rdf="http://www.w3.org/1999/02/22-rdf-syntax-ns#"
   xmlns:svg="http://www.w3.org/2000/svg"
   xmlns="http://www.w3.org/2000/svg"
   xmlns:sodipodi="http://sodipodi.sourceforge.net/DTD/sodipodi-0.dtd"
   xmlns:inkscape="http://www.inkscape.org/namespaces/inkscape"
   height="512pt"
   viewBox="0 0 512 512"
   width="512pt"
   version="1.1"
   id="svg10"
   sodipodi:docname="switch.svg"
   inkscape:version="0.92.3 (2405546, 2018-03-11)">
  <metadata
     id="metadata16">
    <rdf:RDF>
      <cc:Work
         rdf:about="">
        <dc:format>image/svg+xml</dc:format>
        <dc:type
           rdf:resource="http://purl.org/dc/dcmitype/StillImage" />
      </cc:Work>
    </rdf:RDF>
  </metadata>
  <defs
     id="defs14" />
  <sodipodi:namedview
     pagecolor="#ffffff"
     bordercolor="#666666"
     borderopacity="1"
     objecttolerance="10"
     gridtolerance="10"
     guidetolerance="10"
     inkscape:pageopacity="0"
     inkscape:pageshadow="2"
     inkscape:window-width="1366"
     inkscape:window-height="743"
     id="namedview12"
     showgrid="false"
     inkscape:zoom="0.9777961"
     inkscape:cx="373.34173"
     inkscape:cy="295.45469"
     inkscape:window-x="1366"
     inkscape:window-y="0"
     inkscape:window-maximized="1"
     inkscape:current-layer="svg10" />
  <path
     d="m394.667969 234.667969h-277.335938c-64.703125 0-117.332031-52.652344-117.332031-117.335938 0-64.679687 52.628906-117.332031 117.332031-117.332031h277.335938c64.703125 0 117.332031 52.652344 117.332031 117.332031 0 64.683594-52.628906 117.335938-117.332031 117.335938zm-277.335938-202.667969c-47.058593 0-85.332031 38.273438-85.332031 85.332031 0 47.0625 38.273438 85.335938 85.332031 85.335938h277.335938c47.058593 0 85.332031-38.273438 85.332031-85.335938 0-47.058593-38.273438-85.332031-85.332031-85.332031zm0 0"
     id="path2" />
  <path
     d="m117.332031 170.667969c-29.394531 0-53.332031-23.914063-53.332031-53.335938 0-29.417969 23.9375-53.332031 53.332031-53.332031 29.398438 0 53.335938 23.914062 53.335938 53.332031 0 29.421875-23.9375 53.335938-53.335938 53.335938zm0-74.667969c-11.753906 0-21.332031 9.558594-21.332031 21.332031 0 11.777344 9.578125 21.335938 21.332031 21.335938 11.757813 0 21.335938-9.558594 21.335938-21.335938 0-11.773437-9.578125-21.332031-21.335938-21.332031zm0 0"
     id="path4" />
  <path
     d="m394.667969 512h-277.335938c-64.703125 0-117.332031-52.652344-117.332031-117.332031 0-64.683594 52.628906-117.335938 117.332031-117.335938h277.335938c64.703125 0 117.332031 52.652344 117.332031 117.335938 0 64.679687-52.628906 117.332031-117.332031 117.332031zm-277.335938-202.667969c-47.058593 0-85.332031 38.273438-85.332031 85.335938 0 47.058593 38.273438 85.332031 85.332031 85.332031h277.335938c47.058593 0 85.332031-38.273438 85.332031-85.332031 0-47.0625-38.273438-85.335938-85.332031-85.335938zm0 0"
     id="path6" />
  <path
     d="m 117.16797,448 c -29.39844,0 -53.33594,-23.91406 -53.33594,-53.33203 0,-29.42188 23.9375,-53.33594 53.33594,-53.33594 29.39453,0 53.33203,23.91406 53.33203,53.33594 C 170.5,424.08594 146.5625,448 117.16797,448 Z m 0,-74.66797 c -11.75781,0 -21.33594,9.55859 -21.33594,21.33594 0,11.77344 9.57813,21.33203 21.33594,21.33203 11.75391,0 21.33203,-9.55859 21.33203,-21.33203 0,-11.77735 -9.57812,-21.33594 -21.33203,-21.33594 z m 0,0"
     id="path8"
     inkscape:connector-curvature="0" />
</svg>
