<?xml version="1.0" encoding="UTF-8" standalone="no"?>
<!-- Generator: Adobe Illustrator 19.0.0, SVG Export Plug-In . SVG Version: 6.00 Build 0)  -->

<svg
   xmlns:dc="http://purl.org/dc/elements/1.1/"
   xmlns:cc="http://creativecommons.org/ns#"
   xmlns:rdf="http://www.w3.org/1999/02/22-rdf-syntax-ns#"
   xmlns:svg="http://www.w3.org/2000/svg"
   xmlns="http://www.w3.org/2000/svg"
   xmlns:sodipodi="http://sodipodi.sourceforge.net/DTD/sodipodi-0.dtd"
   xmlns:inkscape="http://www.inkscape.org/namespaces/inkscape"
   version="1.1"
   id="Capa_1"
   x="0px"
   y="0px"
   viewBox="0 0 512 512"
   style="enable-background:new 0 0 512 512;"
   xml:space="preserve"
   sodipodi:docname="trash-blue.svg"
   inkscape:version="0.92.3 (2405546, 2018-03-11)"><metadata
   id="metadata55"><rdf:RDF><cc:Work
       rdf:about=""><dc:format>image/svg+xml</dc:format><dc:type
         rdf:resource="http://purl.org/dc/dcmitype/StillImage" /><dc:title></dc:title></cc:Work></rdf:RDF></metadata><defs
   id="defs53" /><sodipodi:namedview
   pagecolor="#ffffff"
   bordercolor="#666666"
   borderopacity="1"
   objecttolerance="10"
   gridtolerance="10"
   guidetolerance="10"
   inkscape:pageopacity="0"
   inkscape:pageshadow="2"
   inkscape:window-width="1366"
   inkscape:window-height="703"
   id="namedview51"
   showgrid="false"
   inkscape:zoom="0.4609375"
   inkscape:cx="28.20339"
   inkscape:cy="256"
   inkscape:window-x="0"
   inkscape:window-y="0"
   inkscape:window-maximized="1"
   inkscape:current-layer="Capa_1" />
<g
   id="g6"
   style="fill:#87dff0;fill-opacity:1">
	<g
   id="g4"
   style="fill:#87dff0;fill-opacity:1">
		<path
   d="M469.333,85.333h-42.667h-64v-64C362.667,9.557,353.131,0,341.333,0H170.667c-11.797,0-21.333,9.557-21.333,21.333v64h-64    H42.667c-11.797,0-21.333,9.557-21.333,21.333S30.869,128,42.667,128H64v320c0,35.285,28.715,64,64,64h256    c35.285,0,64-28.715,64-64V128h21.333c11.797,0,21.333-9.557,21.333-21.333S481.131,85.333,469.333,85.333z M192,42.667h128    v42.667H192V42.667z M405.333,448c0,11.755-9.557,21.333-21.333,21.333H128c-11.776,0-21.333-9.579-21.333-21.333V128h64h170.667    h64V448z"
   id="path2"
   style="fill:#87dff0;fill-opacity:1" />
	</g>
</g>
<g
   id="g12"
   style="fill:#87dff0;fill-opacity:1">
	<g
   id="g10"
   style="fill:#87dff0;fill-opacity:1">
		<path
   d="M192,170.667c-11.797,0-21.333,9.557-21.333,21.333v192c0,11.776,9.536,21.333,21.333,21.333s21.333-9.557,21.333-21.333    V192C213.333,180.224,203.797,170.667,192,170.667z"
   id="path8"
   style="fill:#87dff0;fill-opacity:1" />
	</g>
</g>
<g
   id="g18"
   style="fill:#87dff0;fill-opacity:1">
	<g
   id="g16"
   style="fill:#87dff0;fill-opacity:1">
		<path
   d="M320,170.667c-11.797,0-21.333,9.557-21.333,21.333v192c0,11.776,9.536,21.333,21.333,21.333s21.333-9.557,21.333-21.333    V192C341.333,180.224,331.797,170.667,320,170.667z"
   id="path14"
   style="fill:#87dff0;fill-opacity:1" />
	</g>
</g>
<g
   id="g20">
</g>
<g
   id="g22">
</g>
<g
   id="g24">
</g>
<g
   id="g26">
</g>
<g
   id="g28">
</g>
<g
   id="g30">
</g>
<g
   id="g32">
</g>
<g
   id="g34">
</g>
<g
   id="g36">
</g>
<g
   id="g38">
</g>
<g
   id="g40">
</g>
<g
   id="g42">
</g>
<g
   id="g44">
</g>
<g
   id="g46">
</g>
<g
   id="g48">
</g>
</svg>